<svg width="186" height="196" viewBox="0 0 186 196" fill="none" xmlns="http://www.w3.org/2000/svg">
<g filter="url(#filter0_d_75_3)">
<path opacity="0.916" fill-rule="evenodd" clip-rule="evenodd" d="M177 2.8969C177 4.8402 177 6.7836 177 8.7268C119.3 8.2754 61.599 7.9017 3.89689 7.6057C3.46473 5.7823 3.31524 3.9138 3.44844 2C61.2976 2.4538 119.148 2.7528 177 2.8969Z" fill="black"/>
<path opacity="0.976" fill-rule="evenodd" clip-rule="evenodd" d="M41.5669 12.3145C73.4071 12.3145 105.247 12.3145 137.087 12.3145C137.161 13.9656 137.087 15.6099 136.863 17.2475C134.314 17.6214 132.52 18.9668 131.482 21.2836C131.183 27.4126 131.183 33.5412 131.482 39.6702C133.223 38.0782 135.091 36.6579 137.087 35.4099C139.107 33.6873 140.378 31.52 140.899 28.9073C141.123 26.2206 141.198 23.5299 141.123 20.8351C151.886 20.8351 162.649 20.8351 173.412 20.8351C173.56 23.8398 173.411 26.8291 172.964 29.8042C167.23 30.3863 163.418 33.3761 161.528 38.7733C161.453 49.0128 161.379 59.2528 161.304 69.4923C161.238 80.3512 161.462 91.1892 161.977 102.005C164.213 106.553 167.876 109.094 172.964 109.629C173.561 110.675 173.561 111.722 172.964 112.768C160.706 121.737 148.448 130.706 136.19 139.675C135.593 135.191 135.593 130.706 136.19 126.222C137.981 125.102 139.55 123.756 140.899 122.185C141.198 96.7731 141.198 71.3611 140.899 45.9485C126.773 56.1881 112.647 66.4281 98.5205 76.6672C109.358 84.5152 120.196 92.3632 131.033 100.211C131.332 114.562 131.332 128.912 131.033 143.263C117.615 152.999 104.236 162.79 90.8968 172.637C89.8506 173.533 88.8039 173.533 87.7576 172.637C74.6825 162.885 61.528 153.244 48.2937 143.711C47.92 114.712 47.6958 85.7122 47.6211 56.7114C44.2514 54.2786 40.9627 51.7376 37.7551 49.0877C37.4561 73.3041 37.4561 97.5212 37.7551 121.737C39.1223 123.852 40.9161 125.496 43.1365 126.67C43.5097 131.013 43.435 135.348 42.9123 139.675C30.4258 130.816 18.0186 121.847 5.69069 112.768C5.25379 111.762 5.10431 110.716 5.24223 109.629C11.2945 109.406 15.2558 106.416 17.1262 100.66C17.4252 80.1802 17.4252 59.7013 17.1262 39.2217C15.4823 33.4981 11.6705 30.3589 5.69069 29.8042C5.24372 26.8291 5.09423 23.8398 5.24223 20.8351C16.0051 20.8351 26.768 20.8351 37.5309 20.8351C37.1481 25.0645 37.8207 29.1006 39.5489 32.9434C42.1249 34.9412 44.7409 36.8848 47.3968 38.7733C48.0262 32.7783 47.9515 26.7986 47.1726 20.8351C45.8943 18.8516 44.1005 17.6558 41.7912 17.2475C41.5676 15.6099 41.4928 13.9656 41.5669 12.3145ZM67.5772 21.2836C82.0771 21.2836 96.5774 21.2836 111.077 21.2836C111.226 32.3496 111.077 43.4112 110.629 54.4691C103.586 59.6452 96.4854 64.7274 89.3272 69.7165C82.0802 64.5965 74.905 59.3648 67.8015 54.0206C67.5772 43.1093 67.5023 32.1971 67.5772 21.2836ZM67.5772 71.5103C81.9197 82.1131 96.2702 92.7261 110.629 103.35C111.152 117.1 111.226 130.853 110.853 144.608C103.757 149.95 96.5818 155.182 89.3272 160.304C82.2313 154.963 75.0561 149.73 67.8015 144.608C67.5772 120.243 67.5023 95.8762 67.5772 71.5103Z" fill="black"/>
<path opacity="0.927" fill-rule="evenodd" clip-rule="evenodd" d="M3 123.979C3 121.886 3 119.794 3 117.701C4.71237 116.593 6.50618 116.518 8.38144 117.476C35.5078 137.691 62.7138 157.797 90 177.793C116.694 157.751 143.452 137.795 170.273 117.925C172.804 117.624 174.299 118.745 174.758 121.288C174.491 122.345 174.042 123.317 173.412 124.203C146.136 144.642 118.781 164.972 91.3454 185.193C88.7241 185.868 86.3334 185.338 84.1701 183.848C57.2862 163.61 30.2295 143.654 3 123.979Z" fill="black"/>
</g>
<defs>
<filter id="filter0_d_75_3" x="0.3" y="0.3" width="185.4" height="194.882" filterUnits="userSpaceOnUse" color-interpolation-filters="sRGB">
<feFlood flood-opacity="0" result="BackgroundImageFix"/>
<feColorMatrix in="SourceAlpha" type="matrix" values="0 0 0 0 0 0 0 0 0 0 0 0 0 0 0 0 0 0 127 0" result="hardAlpha"/>
<feOffset dx="3" dy="4"/>
<feGaussianBlur stdDeviation="2.85"/>
<feComposite in2="hardAlpha" operator="out"/>
<feColorMatrix type="matrix" values="0 0 0 0 0 0 0 0 0 0 0 0 0 0 0 0 0 0 0.25 0"/>
<feBlend mode="normal" in2="BackgroundImageFix" result="effect1_dropShadow_75_3"/>
<feBlend mode="normal" in="SourceGraphic" in2="effect1_dropShadow_75_3" result="shape"/>
</filter>
</defs>
</svg>
