<svg width="174" height="225" viewBox="0 0 174 225" fill="none" xmlns="http://www.w3.org/2000/svg">
<g clip-path="url(#clip0_63_60)">
<path opacity="0.916" fill-rule="evenodd" clip-rule="evenodd" d="M173.776 28.0287C173.776 29.972 173.776 31.9154 173.776 33.8586C116.076 33.4072 58.3749 33.0335 0.672771 32.7375C0.240604 30.9141 0.09112 29.0456 0.224317 27.1318C58.0735 27.5856 115.924 27.8846 173.776 28.0287Z" fill="#FEFFFE"/>
<path opacity="0.976" fill-rule="evenodd" clip-rule="evenodd" d="M38.3428 37.4463C70.183 37.4463 102.023 37.4463 133.863 37.4463C133.937 39.0974 133.863 40.7417 133.639 42.3793C131.09 42.7532 129.296 44.0986 128.258 46.4154C127.959 52.5444 127.959 58.673 128.258 64.802C129.999 63.21 131.867 61.7897 133.863 60.5417C135.883 58.8191 137.154 56.6518 137.675 54.0391C137.899 51.3524 137.974 48.6617 137.899 45.9669C148.662 45.9669 159.425 45.9669 170.188 45.9669C170.336 48.9716 170.187 51.9609 169.74 54.936C164.006 55.5181 160.194 58.5079 158.304 63.9051C158.229 74.1446 158.155 84.3846 158.08 94.6241C158.014 105.483 158.238 116.321 158.753 127.137C160.989 131.685 164.652 134.226 169.74 134.761C170.337 135.807 170.337 136.854 169.74 137.9C157.482 146.869 145.224 155.838 132.966 164.807C132.369 160.323 132.369 155.838 132.966 151.354C134.757 150.234 136.326 148.888 137.675 147.317C137.974 121.905 137.974 96.4929 137.675 71.0803C123.549 81.3199 109.423 91.5599 95.2964 101.799C106.134 109.647 116.972 117.495 127.809 125.343C128.108 139.694 128.108 154.044 127.809 168.395C114.391 178.131 101.012 187.922 87.6727 197.769C86.6265 198.665 85.5798 198.665 84.5335 197.769C71.4584 188.017 58.3039 178.376 45.0696 168.843C44.6959 139.844 44.4717 110.844 44.397 81.8432C41.0273 79.4104 37.7386 76.8694 34.531 74.2195C34.232 98.436 34.232 122.653 34.531 146.869C35.8982 148.984 37.692 150.628 39.9124 151.802C40.2856 156.145 40.2109 160.48 39.6882 164.807C27.2017 155.948 14.7945 146.979 2.46657 137.9C2.02967 136.894 1.88019 135.848 2.01811 134.761C8.07039 134.538 12.0317 131.548 13.9021 125.792C14.2011 105.312 14.2011 84.8331 13.9021 64.3535C12.2582 58.6299 8.44633 55.4907 2.46657 54.936C2.0196 51.9609 1.87011 48.9716 2.01811 45.9669C12.781 45.9669 23.5439 45.9669 34.3068 45.9669C33.924 50.1963 34.5966 54.2324 36.3248 58.0752C38.9008 60.073 41.5168 62.0166 44.1727 63.9051C44.8021 57.9101 44.7274 51.9304 43.9485 45.9669C42.6702 43.9834 40.8764 42.7876 38.5671 42.3793C38.3435 40.7417 38.2687 39.0974 38.3428 37.4463ZM64.3531 46.4154C78.853 46.4154 93.3533 46.4154 107.853 46.4154C108.002 57.4814 107.853 68.543 107.405 79.6009C100.362 84.777 93.2613 89.8593 86.1031 94.8484C78.8561 89.7284 71.6809 84.4967 64.5774 79.1525C64.3531 68.2412 64.2782 57.3289 64.3531 46.4154ZM64.3531 96.6422C78.6956 107.245 93.0461 117.858 107.405 128.482C107.928 142.232 108.002 155.985 107.629 169.74C100.533 175.082 93.3577 180.314 86.1031 185.436C79.0072 180.095 71.832 174.862 64.5774 169.74C64.3531 145.375 64.2782 121.008 64.3531 96.6422Z" fill="#FEFFFE"/>
<path opacity="0.927" fill-rule="evenodd" clip-rule="evenodd" d="M-0.224121 149.111C-0.224121 147.018 -0.224121 144.926 -0.224121 142.833C1.48825 141.725 3.28206 141.65 5.15732 142.608C32.2837 162.823 59.4897 182.929 86.7759 202.925C113.47 182.883 140.228 162.927 167.049 143.057C169.58 142.756 171.075 143.877 171.534 146.42C171.267 147.477 170.818 148.449 170.188 149.335C142.912 169.774 115.557 190.104 88.1213 210.325C85.5 211 83.1093 210.47 80.946 208.98C54.0621 188.742 27.0054 168.786 -0.224121 149.111Z" fill="#FEFFFE"/>
</g>
<defs>
<clipPath id="clip0_63_60">
<rect width="174" height="224.227" fill="white"/>
</clipPath>
</defs>
</svg>
