<svg width="100" height="100" viewBox="0 0 100 100" fill="none" xmlns="http://www.w3.org/2000/svg">
<g clip-path="url(#clip0_102_2)">
<path d="M52.83 31.01C41.9381 31.0114 31.3821 34.781 22.9531 41.6793C14.5242 48.5775 8.74139 58.1795 6.586 68.856L0 68.746L5.66 78.18L20.26 78.423C20.2613 70.6183 23.0653 63.0736 28.1614 57.1623C33.2576 51.2511 40.307 47.3665 48.0264 46.2156C55.7458 45.0647 63.6218 46.7241 70.2206 50.8918C76.8193 55.0594 81.7021 61.4581 83.98 68.923L79.732 68.994L85.4 78.423L100 78.18C100 65.6697 95.0303 53.6719 86.1842 44.8258C77.3381 35.9797 65.3403 31.01 52.83 31.01V31.01Z" fill="#111111"/>
<path d="M94.34 68.7461C94.34 56.2358 89.3703 44.2379 80.5242 35.3918C71.6781 26.5457 59.6803 21.576 47.17 21.576C34.6597 21.576 22.6619 26.5457 13.8158 35.3918C4.96968 44.2379 1.86417e-07 56.2358 0 68.7461L14.6 68.989C14.6477 60.3831 18.0998 52.146 24.202 46.0774C30.3043 40.0089 38.5605 36.6025 47.1665 36.6025C55.7725 36.6025 64.0287 40.0089 70.131 46.0774C76.2332 52.146 79.6853 60.3831 79.733 68.989L94.34 68.7461Z" fill="#9B9B9B"/>
</g>
<defs>
<clipPath id="clip0_102_2">
<rect width="100" height="100" fill="white"/>
</clipPath>
</defs>
</svg>
